<svg width="20" height="20" viewBox="0 0 20 20" fill="none" xmlns="http://www.w3.org/2000/svg">
<g clip-path="url(#clip0_10967_15200)">
<path d="M10 20C15.5228 20 20 15.5228 20 10C20 4.47715 15.5228 0 10 0C4.47715 0 0 4.47715 0 10C0 15.5228 4.47715 20 10 20Z" fill="#F0F0F0"/>
<path d="M2.06644 3.91016C1.28094 4.93215 0.688633 6.11008 0.34375 7.38973H5.54601L2.06644 3.91016Z" fill="#0052B4"/>
<path d="M19.6553 7.38969C19.3104 6.11008 18.7181 4.93215 17.9326 3.91016L14.4531 7.38969H19.6553Z" fill="#0052B4"/>
<path d="M0.34375 12.6094C0.688672 13.889 1.28098 15.0669 2.06645 16.0889L5.5459 12.6094H0.34375Z" fill="#0052B4"/>
<path d="M16.087 2.06649C15.065 1.28098 13.8871 0.688672 12.6074 0.34375V5.54598L16.087 2.06649Z" fill="#0052B4"/>
<path d="M3.91016 17.9306C4.93215 18.7161 6.11008 19.3084 7.38969 19.6534V14.4512L3.91016 17.9306Z" fill="#0052B4"/>
<path d="M7.38965 0.34375C6.11004 0.688672 4.93211 1.28098 3.91016 2.06644L7.38965 5.54593V0.34375Z" fill="#0052B4"/>
<path d="M12.6074 19.6534C13.887 19.3084 15.065 18.7161 16.0869 17.9307L12.6074 14.4512V19.6534Z" fill="#0052B4"/>
<path d="M14.4531 12.6094L17.9326 16.0889C18.7181 15.0669 19.3104 13.889 19.6553 12.6094H14.4531Z" fill="#0052B4"/>
<path d="M19.9154 8.69566H11.3044H11.3044V0.0846484C10.8774 0.0290625 10.4421 0 10 0C9.55785 0 9.12262 0.0290625 8.69566 0.0846484V8.69559V8.69563H0.0846484C0.0290625 9.12262 0 9.55793 0 10C0 10.4421 0.0290625 10.8774 0.0846484 11.3043H8.69559H8.69563V19.9154C9.12262 19.9709 9.55785 20 10 20C10.4421 20 10.8774 19.971 11.3043 19.9154V11.3044V11.3044H19.9154C19.9709 10.8774 20 10.4421 20 10C20 9.55793 19.9709 9.12262 19.9154 8.69566Z" fill="#D80027"/>
<path d="M12.6094 12.6094L17.0717 17.0718C17.277 16.8666 17.4727 16.6521 17.6595 16.4298L13.8391 12.6094H12.6094V12.6094Z" fill="#D80027"/>
<path d="M7.39207 12.6094H7.39199L2.92969 17.0717C3.13484 17.2769 3.34934 17.4727 3.57168 17.6595L7.39207 13.839V12.6094Z" fill="#D80027"/>
<path d="M7.39195 7.39019V7.39012L2.92961 2.92773C2.72438 3.13289 2.52859 3.34738 2.3418 3.56973L6.16223 7.39016H7.39195V7.39019Z" fill="#D80027"/>
<path d="M12.6094 7.39199L17.0718 2.92957C16.8666 2.72434 16.6521 2.52855 16.4298 2.3418L12.6094 6.16223V7.39199Z" fill="#D80027"/>
</g>
<defs>
<clipPath id="clip0_10967_15200">
<rect width="20" height="20" fill="white"/>
</clipPath>
</defs>
</svg>
